<?xml version="1.0" standalone="no"?><!DOCTYPE svg PUBLIC "-//W3C//DTD SVG 1.1//EN"
        "http://www.w3.org/Graphics/SVG/1.1/DTD/svg11.dtd">
<svg  viewBox="0 0 1024 1024" version="1.1" xmlns="http://www.w3.org/2000/svg"
     width="128" height="128" xmlns:xlink="http://www.w3.org/1999/xlink">
    <path d="M512 177.8c45.1 0 88.9 8.8 130.1 26.2 39.8 16.8 75.5 40.9 106.2 71.6 30.7 30.7 54.8 66.4 71.6 106.2 17.4 41.2 26.2 84.9 26.2 130.1s-8.8 88.9-26.2 130.1c-16.8 39.8-40.9 75.5-71.6 106.2-30.7 30.7-66.4 54.8-106.2 71.6C600.9 837.2 557.2 846 512 846s-88.9-8.8-130.1-26.2c-39.8-16.8-75.5-40.9-106.2-71.6-30.7-30.7-54.8-66.4-71.6-106.2-17.4-41.2-26.2-84.9-26.2-130.1s8.8-88.9 26.2-130.1c16.8-39.8 40.9-75.5 71.6-106.2s66.4-54.8 106.2-71.6c41.2-17.3 85-26.2 130.1-26.2m0-50c-212.2 0-384.2 172-384.2 384.2s172 384.2 384.2 384.2 384.2-172 384.2-384.2-172-384.2-384.2-384.2z"/>
    <path d="M688.1 622.3L568.6 509.1 684 402.3l-49.7-61.8-123.2 114-118.4-112.1-50.3 61.2 110.5 104.7-117 108.4 49.6 61.8 125-115.6 127.3 120.6z"/>
</svg>