<?xml version="1.0" standalone="no"?><!DOCTYPE svg PUBLIC "-//W3C//DTD SVG 1.1//EN"
        "http://www.w3.org/Graphics/SVG/1.1/DTD/svg11.dtd">
<svg viewBox="0 0 1024 1024" version="1.1" xmlns="http://www.w3.org/2000/svg"
     width="128" height="128" xmlns:xlink="http://www.w3.org/1999/xlink">
    <path d="M853.333333 1024H170.666667c-95.573333 0-170.666667-75.093333-170.666667-170.666667V170.666667c0-95.573333 75.093333-170.666667 170.666667-170.666667h682.666666c95.573333 0 170.666667 75.093333 170.666667 170.666667v682.666666c0 95.573333-75.093333 170.666667-170.666667 170.666667zM170.666667 68.266667C112.64 68.266667 68.266667 112.64 68.266667 170.666667v682.666666c0 58.026667 44.373333 102.4 102.4 102.4h682.666666c58.026667 0 102.4-44.373333 102.4-102.4V170.666667c0-58.026667-44.373333-102.4-102.4-102.4H170.666667z"/>
    <path d="M320.853333 351.573333m-64.853333 0a64.853333 64.853333 0 1 0 129.706667 0 64.853333 64.853333 0 1 0-129.706667 0Z"/>
    <path d="M221.866667 856.746667l-61.44-27.306667 13.653333-30.72c71.68-167.253333 187.733333-252.586667 341.333333-262.826667 129.706667-6.826667 225.28-44.373333 283.306667-112.64l23.893333-27.306666 51.2 44.373333-23.893333 27.306667c-71.68 81.92-184.32 129.706667-331.093333 136.533333-126.293333 6.826667-218.453333 78.506667-279.893334 221.866667l-17.066666 30.72z"/>
</svg>